<?xml version="1.0" standalone="no"?>
<!DOCTYPE svg PUBLIC "-//W3C//DTD SVG 20010904//EN"
 "http://www.w3.org/TR/2001/REC-SVG-20010904/DTD/svg10.dtd">
<svg version="1.0" xmlns="http://www.w3.org/2000/svg"
 width="501.000000pt" height="501.000000pt" viewBox="0 0 501.000000 501.000000"
 preserveAspectRatio="xMidYMid meet">
<metadata>
Created by potrace 1.14, written by Peter Selinger 2001-2017
</metadata>
<g transform="translate(0.000000,501.000000) scale(0.100000,-0.100000)"
fill="#000000" stroke="none">
<path d="M0 2510 l0 -2180 2505 0 2505 0 0 2180 0 2180 -2505 0 -2505 0 0
-2180z m1815 1268 c107 -143 282 -448 269 -470 -3 -5 -16 -2 -30 7 -20 13 -24
13 -24 1 0 -7 7 -19 15 -26 22 -18 18 -30 -8 -30 -30 0 -40 -10 -26 -27 9 -10
7 -13 -10 -13 -11 0 -21 -6 -21 -14 0 -8 -33 -41 -72 -73 -45 -36 -88 -82
-113 -120 -22 -35 -45 -63 -52 -63 -29 0 -66 267 -66 490 -1 182 6 250 39 360
20 67 35 64 99 -22z m1489 21 c33 -109 40 -177 39 -359 0 -223 -37 -490 -66
-490 -7 0 -30 28 -52 63 -25 38 -68 84 -112 120 -40 32 -73 65 -73 73 0 8 -10
14 -21 14 -17 0 -19 3 -10 13 14 17 4 27 -26 27 -26 0 -30 12 -8 30 8 7 15 19
15 26 0 12 -4 12 -23 -1 -13 -8 -26 -12 -30 -9 -28 28 293 544 338 544 8 0 21
-21 29 -51z m-1164 -847 c63 -32 112 -98 136 -178 9 -33 21 -54 30 -54 18 0
18 -19 0 -26 -8 -3 -17 -16 -20 -30 -4 -13 -20 -40 -38 -59 -95 -109 -300
-114 -402 -11 -75 75 -80 139 -21 255 63 124 194 167 315 103z m938 12 c71
-29 127 -105 153 -207 15 -61 -1 -107 -57 -163 -75 -76 -230 -97 -332 -45 -45
23 -99 81 -108 115 -3 14 -12 27 -20 30 -18 7 -18 26 0 26 9 0 21 21 30 54 37
125 132 206 242 206 30 0 71 -7 92 -16z m-517 -394 c27 -15 24 -25 -14 -47
-30 -18 -36 -18 -75 -5 -44 14 -54 34 -24 51 22 14 88 14 113 1z"/>
<path d="M2090 2804 c-24 -62 -4 -184 30 -184 15 0 38 42 45 83 7 33 5 37 -14
37 -11 0 -21 5 -21 10 0 6 7 10 15 10 17 0 20 23 5 51 -15 28 -49 24 -60 -7z"/>
<path d="M2872 2813 c-28 -55 -20 -155 14 -184 14 -11 19 -10 35 10 24 29 25
79 2 97 -17 13 -17 15 0 28 14 11 15 19 7 40 -11 30 -45 35 -58 9z"/>
</g>
</svg>
